<svg data-v-423bf9ae="" xmlns="http://www.w3.org/2000/svg" viewBox="0 0 116.26113245008563 60" class="font"><!----><!----><!----><g data-v-423bf9ae="" id="c8896069-2371-41e7-8e74-0f19206e2653" fill="#25BDD6" transform="matrix(5.934718302425701,0,0,5.934718302425701,-3.3827877662946406,-1.8397626282967963)"><path d="M7.57 5.39C7.57 9.90 5.36 10.08 3.93 10.08L3.32 10.08L3.32 0.64L3.93 0.64C5.39 0.64 7.57 0.95 7.57 5.39ZM9.65 5.39C9.65 1.29 6.72 0.43 3.93 0.43L0.57 0.43L0.57 0.64C1.19 0.64 1.57 1.36 1.57 2.23L1.57 8.50C1.57 9.45 1.18 10.08 0.57 10.08L0.57 10.29L3.93 10.29C6.72 10.29 9.65 9.56 9.65 5.39ZM16.53 6.37L16.53 6.58C17.40 6.58 17.70 6.64 17.70 8.64C17.70 9.91 17.25 10.21 15.61 10.21C14.04 10.21 13.02 9.21 13.02 5.36C13.02 1.51 14.01 0.52 15.61 0.52C17.26 0.52 18.35 1.15 18.66 3.40L19.05 3.40L19.15 1.08C18.28 0.50 17.18 0.31 15.61 0.31C12.59 0.31 10.84 2.58 10.84 5.36C10.84 8.15 12.59 10.42 15.61 10.42C17.11 10.42 18.34 10.16 19.21 9.83C19.21 6.78 19.35 6.58 20.16 6.58L20.16 6.37Z"></path></g><!----><!----></svg>